<svg width="243" height="124" viewBox="0 0 243 124" fill="none" xmlns="http://www.w3.org/2000/svg">
<path fill-rule="evenodd" clip-rule="evenodd" d="M23.0902 1.05189C24.0522 1.61289 24.8402 2.92888 24.8402 3.97589C24.8402 5.39889 23.8912 6.04088 21.0902 6.51088C13.7442 7.74389 10.4732 9.28589 6.25421 13.5059C-1.08579 20.8459 -2.04379 30.6909 3.79721 38.7539C7.10321 43.3169 15.5712 47.9719 20.5682 47.9719C24.5872 47.9719 26.1182 50.5639 23.3112 52.6169C21.6722 53.8149 22.1192 53.9719 27.1722 53.9719H32.8862L31.3112 51.5689C29.7472 49.1809 29.7652 49.1609 34.0382 48.4489C42.2112 47.0879 50.3322 41.7029 53.5712 35.4979C56.9102 29.0999 54.7152 17.7829 49.1602 12.7599C46.4932 10.3489 39.0052 7.18189 34.1232 6.40089C29.7662 5.70489 29.2762 3.95689 32.6712 1.22189C33.9502 0.190885 33.0922 -0.0231144 27.7812 0.00188559C22.9182 0.0248856 21.7692 0.281885 23.0902 1.05189ZM24.8402 27.5969V46.2219L21.7052 45.5949C12.0182 43.6579 3.57021 32.3549 5.35321 23.7189C6.93021 16.0769 14.9922 8.97489 22.0902 8.97289L24.8402 8.97189V27.5969ZM38.7252 10.9129C53.2572 18.3269 53.6402 37.0499 39.3992 43.9429C36.9272 45.1399 33.8772 45.9739 32.6222 45.7959C30.3492 45.4729 30.3392 45.3959 30.1462 27.2219L29.9512 8.97189H32.4362C33.8022 8.97189 36.6322 9.84489 38.7252 10.9129ZM180.944 16.5069C179.237 18.4509 177.84 20.7009 177.84 21.5069C177.84 22.3129 177.386 22.9719 176.831 22.9719C176.276 22.9719 174.426 25.2389 172.721 28.0099C171.016 30.7809 168.113 34.0729 166.269 35.3259C164.426 36.5789 161.942 38.8439 160.75 40.3589L158.583 43.1149L155.399 40.0289L152.215 36.9439L149.778 39.5779C148.437 41.0269 145.54 43.0049 143.34 43.9719C141.14 44.9389 138.215 46.9999 136.84 48.5509L134.34 51.3709L137.015 49.6969C138.866 48.5389 139.809 48.3789 140.074 49.1749C140.321 49.9149 140.972 50.0049 141.899 49.4249C142.692 48.9299 143.79 48.5059 144.34 48.4829C144.89 48.4599 146.953 47.8219 148.924 47.0659C151.895 45.9249 152.432 45.2859 152.058 43.3309C151.508 40.4529 152.913 40.2899 155.323 42.9529C156.729 44.5069 156.862 45.2409 155.939 46.3519C154.957 47.5349 155.307 47.7149 158.051 47.4359C159.86 47.2519 163.644 46.5449 166.46 45.8659C171.345 44.6869 171.798 44.7569 176.289 47.3889C178.878 48.9069 181.194 49.9519 181.434 49.7119C182.281 48.8639 176.273 43.6839 170.948 40.6709C166.225 37.9989 165.812 37.5259 167.62 36.8579C168.755 36.4379 170.823 34.1539 172.216 31.7829C173.608 29.4119 176.975 25.2819 179.696 22.6059C184.544 17.8379 184.669 17.7839 185.82 19.9339C187.284 22.6699 186.483 24.9719 184.068 24.9719C182.343 24.9719 175.84 30.7399 175.84 32.2699C175.84 32.6559 176.913 32.9719 178.225 32.9719C179.659 32.9719 181.257 33.9589 182.233 35.4479C183.178 36.8909 187.735 39.7739 193.147 42.3549C198.258 44.7909 203.053 47.5229 203.802 48.4259C204.88 49.7249 205.332 49.7959 205.972 48.7689C206.516 47.8959 207.006 48.5919 207.471 50.9029C208.096 54.0059 208.239 54.1259 208.969 52.1529C210.031 49.2809 212.006 49.3989 215.763 52.5609C221.65 57.5139 218.789 53.0939 210.874 45.0069C206.493 40.5299 201.661 34.5769 200.138 31.7779C198.605 28.9609 195.733 25.6059 193.709 24.2669C191.697 22.9349 188.992 19.8489 187.697 17.4089C186.403 14.9689 185.052 12.9719 184.695 12.9719C184.339 12.9719 182.651 14.5629 180.944 16.5069ZM57.6402 21.1719C59.1602 22.6919 59.3022 49.2409 57.8052 52.0379C56.8452 53.8319 57.1372 53.9719 61.8282 53.9719H66.8862L65.2022 51.4019L63.5192 48.8319L72.9102 39.4019C78.0752 34.2159 82.6472 29.9719 83.0702 29.9719C83.4942 29.9719 83.8402 34.6649 83.8402 40.4009C83.8402 48.5479 83.4962 51.1729 82.2692 52.4009C80.8402 53.8289 81.2102 53.9719 86.3402 53.9719C91.4702 53.9719 91.8402 53.8289 90.4112 52.4009C88.1012 50.0899 88.1012 23.8539 90.4112 21.5429C91.8402 20.1149 91.4702 19.9719 86.3402 19.9719C81.2102 19.9719 80.8402 20.1149 82.2692 21.5429C83.1332 22.4079 83.8402 23.6789 83.8402 24.3679C83.8402 25.4639 78.4572 30.9159 67.0082 41.4159L63.6762 44.4719L64.0082 33.1839C64.2632 24.5029 64.6862 21.6769 65.8402 20.9489C66.8922 20.2849 65.7132 19.9979 61.8902 19.9869C57.6512 19.9749 56.7072 20.2389 57.6402 21.1719ZM94.8052 21.9059C95.3742 22.9699 95.8402 29.7499 95.8402 36.9719C95.8402 44.1939 95.3742 50.9739 94.8052 52.0379C93.8522 53.8189 94.1312 53.9719 98.3402 53.9719C102.549 53.9719 102.828 53.8189 101.875 52.0379C101.306 50.9739 100.84 47.1489 100.84 43.5379V36.9719H110.34H119.84V43.5379C119.84 47.1489 119.374 50.9739 118.805 52.0379C117.852 53.8189 118.131 53.9719 122.34 53.9719C126.549 53.9719 126.828 53.8189 125.875 52.0379C125.306 50.9739 124.84 44.1939 124.84 36.9719C124.84 29.7499 125.306 22.9699 125.875 21.9059C126.828 20.1249 126.549 19.9719 122.34 19.9719C118.131 19.9719 117.852 20.1249 118.805 21.9059C119.374 22.9699 119.84 26.1199 119.84 28.9059V33.9719H110.34H100.84V28.9059C100.84 26.1199 101.306 22.9699 101.875 21.9059C102.828 20.1249 102.549 19.9719 98.3402 19.9719C94.1312 19.9719 93.8522 20.1249 94.8052 21.9059ZM211.261 27.7499C206.828 31.7949 202.882 36.6109 205.993 34.1799C207.341 33.1269 207.725 33.1259 208.075 34.1779C208.343 34.9809 209.006 34.5269 209.836 32.9689C211.319 30.1869 213.746 28.0519 215.483 28.0039C217.21 27.9559 218.031 31.0369 216.715 32.6229C215.34 34.2799 215.455 34.4129 219.34 35.6629C221.852 36.4709 222.422 37.2659 222.843 40.5499C223.206 43.3749 223.547 43.9819 224.062 42.7219C225.409 39.4279 227.778 40.7339 228.486 45.1609C229.059 48.7459 229.273 49.0339 229.966 47.1609C230.931 44.5519 230.666 44.5829 235.326 46.5309C237.378 47.3879 239.266 47.8789 239.523 47.6219C239.78 47.3649 239.086 46.8669 237.98 46.5159C235.811 45.8279 224.84 34.4709 224.84 32.9149C224.84 32.3959 224.244 31.9719 223.515 31.9719C222.162 31.9719 220.175 30.2059 217.079 26.2499L215.34 24.0279L211.261 27.7499ZM196.372 32.4209C198.279 33.2179 199.84 34.3429 199.84 34.9209C199.84 35.4989 201.64 37.7719 203.84 39.9719C206.04 42.1719 207.478 43.9719 207.036 43.9719C204.417 43.9719 191.84 33.9269 191.84 31.8359C191.84 30.6699 192.336 30.7339 196.372 32.4209ZM148.34 50.9039C141.16 52.0839 135.859 53.6429 131.312 55.9109C126.488 58.3169 126.784 58.3779 133.84 56.4289C148.093 52.4929 172.294 53.8849 197.713 60.1019C218.008 65.0659 229.125 64.4029 238.588 57.6619C244.113 53.7259 243.447 53.2149 237.284 56.6589C233.305 58.8829 230.844 59.4509 223.715 59.7919C216.365 60.1439 213.551 59.7809 205.673 57.4679C200.54 55.9609 192.515 53.8789 187.84 52.8409C178.299 50.7239 156.068 49.6329 148.34 50.9039ZM19.5432 69.4139C9.63421 72.9489 2.89221 80.5859 0.80521 90.6419C-1.86779 103.515 4.38421 115.949 16.0552 120.969C23.3042 124.088 34.5402 123.51 41.0702 119.683C46.8502 116.296 51.1402 111.371 53.3492 105.587C55.6742 99.4989 55.0342 88.1839 52.0332 82.3289C46.3252 71.1949 31.2972 65.2209 19.5432 69.4139ZM35.5222 73.0599C52.1612 81.1149 54.6702 106.777 39.7822 116.629C28.2422 124.266 13.6962 119.317 7.83121 105.76C-0.943789 85.4759 17.1152 64.1499 35.5222 73.0599ZM69.3752 90.2039C70.1082 92.1129 58.2012 119.098 55.6892 121.222L53.6182 122.972H55.6582C58.8822 122.972 60.2542 120.891 65.8772 107.479C68.7802 100.553 71.4842 95.2429 71.8852 95.6789C72.2872 96.1149 74.9102 101.834 77.7142 108.387C81.5842 117.431 82.5452 120.623 81.7032 121.637C80.7922 122.735 82.3382 122.972 90.4182 122.972C98.0572 122.972 99.9732 122.705 99.0402 121.772C96.6912 119.423 97.9582 117.315 107.34 107.972L116.84 98.5119V109.542C116.84 116.788 116.428 120.984 115.64 121.772C114.707 122.705 115.623 122.972 119.762 122.972C124.014 122.972 124.868 122.711 124.007 121.673C122.375 119.707 122.207 92.4389 123.815 90.5019C124.928 89.1609 124.427 88.9719 119.762 88.9719C115.623 88.9719 114.707 89.2389 115.64 90.1719C117.989 92.5209 116.722 94.6289 107.34 103.972L97.8402 113.432V102.402C97.8402 95.1559 98.2522 90.9599 99.0402 90.1719C99.9732 89.2389 99.0722 88.9719 94.9832 88.9719C89.7512 88.9719 89.7342 88.9819 91.2832 91.1949C93.3412 94.1319 93.5462 117.625 91.5372 120.371C89.6732 122.921 88.9712 121.803 81.5442 104.428C75.3652 89.9739 75.0452 89.4619 72.0032 89.1589C69.6802 88.9279 68.9912 89.2019 69.3752 90.2039ZM127.64 90.1719C129.16 91.6919 129.302 118.241 127.805 121.038C126.867 122.79 127.122 122.972 130.505 122.972C133.41 122.972 133.973 122.705 133.04 121.772C132.245 120.977 131.858 116.847 131.892 109.522L131.944 98.4719L138.267 110.957L144.591 123.441L151.465 109.957L158.34 96.4719L158.625 107.344C158.848 115.865 158.573 118.73 157.352 120.594L155.794 122.972H161.017C165.079 122.972 165.973 122.705 165.04 121.772C163.365 120.097 163.365 91.8469 165.04 90.1719C165.973 89.2389 165.362 88.9849 162.29 89.0309L158.34 89.0909L152.227 101.781L146.114 114.472L139.746 101.722C133.423 89.0629 133.352 88.9719 129.909 88.9719C127.211 88.9719 126.707 89.2389 127.64 90.1719ZM169.283 91.1949C170.492 92.9199 170.84 96.2269 170.84 105.972C170.84 115.717 170.492 119.024 169.283 120.749C167.734 122.962 167.751 122.972 172.983 122.972C177.072 122.972 177.973 122.705 177.04 121.772C176.219 120.951 175.84 116.061 175.84 106.272V91.9719H184.84H193.84V105.901C193.84 117.23 193.547 120.122 192.269 121.401C190.84 122.829 191.21 122.972 196.34 122.972C201.47 122.972 201.84 122.829 200.411 121.401C199.134 120.123 198.84 117.236 198.84 105.972C198.84 94.7079 199.134 91.8209 200.411 90.5429C201.84 89.1149 200.426 88.9719 184.855 88.9719H167.727L169.283 91.1949Z" fill="#fff"/>
</svg>
