<?xml version="1.0" standalone="no"?>
<!DOCTYPE svg PUBLIC "-//W3C//DTD SVG 20010904//EN"
 "http://www.w3.org/TR/2001/REC-SVG-20010904/DTD/svg10.dtd">
<svg version="1.0" xmlns="http://www.w3.org/2000/svg"
 width="251.000000pt" height="133.000000pt" viewBox="0 0 251.000000 133.000000"
 preserveAspectRatio="xMidYMid meet">

<g transform="translate(0.000000,133.000000) scale(0.100000,-0.100000)"
fill="#fff" stroke="none">
<path d="M263 1269 c9 -5 17 -19 17 -29 0 -14 -9 -21 -37 -25 -98 -17 -157
-56 -192 -128 -33 -68 -24 -137 25 -203 29 -39 116 -84 161 -84 40 0 56 -26
28 -46 -17 -12 -12 -14 38 -14 l57 0 -16 24 c-15 25 -15 25 23 31 86 14 168
67 200 129 34 65 12 178 -44 228 -26 24 -101 56 -150 64 -44 7 -49 24 -15 52
13 10 5 12 -49 12 -48 -1 -60 -3 -46 -11z m17 -265 l0 -186 -31 6 c-97 19
-182 132 -164 219 16 76 97 147 168 147 l27 0 0 -186z m139 167 c145 -75 149
-262 7 -331 -25 -12 -56 -20 -68 -18 -23 3 -23 4 -25 186 l-2 182 25 0 c14 0
42 -9 63 -19z"/>
<path d="M1841 1115 c-17 -20 -31 -42 -31 -50 0 -8 -5 -15 -10 -15 -6 0 -24
-23 -41 -50 -17 -28 -46 -61 -65 -74 -18 -12 -43 -35 -55 -50 l-22 -27 -31 30
-32 31 -25 -26 c-13 -15 -42 -34 -64 -44 -22 -10 -51 -30 -65 -46 l-25 -28 27
17 c18 11 28 13 30 5 3 -7 9 -8 19 -3 8 5 19 10 24 10 6 0 26 6 46 14 30 11
35 18 31 37 -5 29 9 31 33 4 13 -15 15 -23 7 -33 -9 -11 -5 -13 21 -12 17 1
45 7 60 13 43 18 76 14 124 -14 25 -14 47 -24 49 -21 8 8 -52 60 -105 90 -47
27 -51 31 -33 38 11 4 31 25 44 47 13 22 45 64 72 92 46 49 50 52 63 34 18
-25 13 -48 -12 -52 -21 -4 -85 -60 -85 -74 0 -4 11 -8 24 -8 14 0 30 -10 40
-25 9 -14 55 -43 109 -69 51 -24 99 -52 107 -61 10 -13 15 -13 21 -3 6 9 11 2
15 -21 7 -31 8 -33 15 -13 11 29 31 28 68 -4 59 -49 30 -5 -49 76 -43 44 -92
104 -107 132 -15 28 -44 62 -64 75 -20 13 -47 44 -60 69 -13 24 -27 44 -30 44
-4 0 -21 -16 -38 -35z m159 -160 c17 -9 30 -20 30 -25 0 -6 18 -28 40 -50 47
-47 41 -51 -21 -12 -98 63 -137 133 -49 87z"/>
<path d="M608 1068 c15 -15 17 -281 2 -309 -10 -18 -7 -19 40 -19 l50 0 -16
26 -17 25 94 95 c51 52 97 94 101 94 5 0 8 -47 8 -104 0 -82 -3 -108 -16 -120
-14 -15 -10 -16 41 -16 51 0 55 1 41 16 -23 23 -23 285 0 308 14 15 10 16 -41
16 -51 0 -55 -1 -41 -16 9 -8 16 -21 16 -28 0 -11 -54 -65 -168 -170 l-34 -31
4 113 c2 87 6 115 18 122 11 7 -1 10 -39 10 -43 0 -52 -3 -43 -12z"/>
<path d="M980 1061 c5 -11 10 -79 10 -151 0 -72 -5 -140 -10 -151 -10 -17 -7
-19 35 -19 42 0 45 2 35 19 -5 11 -10 49 -10 85 l0 66 95 0 95 0 0 -66 c0 -36
-5 -74 -10 -85 -10 -17 -7 -19 35 -19 42 0 45 2 35 19 -5 11 -10 79 -10 151 0
72 5 140 10 151 10 17 7 19 -35 19 -42 0 -45 -2 -35 -19 5 -11 10 -42 10 -70
l0 -51 -95 0 -95 0 0 51 c0 28 5 59 10 70 10 17 7 19 -35 19 -42 0 -45 -2 -35
-19z"/>
<path d="M2144 1002 c-44 -40 -84 -88 -52 -64 13 10 17 10 20 0 3 -8 10 -4 18
12 15 28 39 49 56 50 18 0 26 -31 13 -47 -14 -16 -13 -17 26 -30 25 -8 31 -16
35 -49 4 -28 7 -34 12 -21 14 32 37 19 44 -25 6 -36 8 -39 15 -20 10 26 7 26
54 6 20 -8 39 -13 42 -10 2 2 -5 7 -16 11 -21 6 -131 120 -131 136 0 5 -6 9
-13 9 -14 0 -34 18 -65 57 l-17 22 -41 -37z"/>
<path d="M1515 771 c-72 -12 -125 -28 -170 -50 -49 -24 -46 -25 25 -6 143 40
385 26 639 -36 203 -50 314 -43 408 24 56 39 49 45 -13 10 -39 -22 -64 -28
-135 -31 -74 -4 -102 0 -181 23 -51 15 -131 36 -178 46 -95 21 -318 32 -395
20z"/>
<path d="M227 586 c-99 -36 -166 -112 -187 -213 -27 -128 35 -253 152 -303 73
-31 185 -25 250 13 58 34 101 83 123 141 23 61 17 174 -13 232 -57 112 -207
172 -325 130z m160 -37 c205 -99 179 -430 -37 -469 -153 -28 -294 136 -259
300 32 149 172 229 296 169z"/>
<path d="M725 378 c8 -19 -111 -290 -136 -310 -21 -18 -21 -18 -1 -18 32 0 46
21 102 155 29 69 56 122 60 118 4 -4 31 -62 59 -127 38 -91 48 -123 40 -133
-9 -11 6 -13 87 -13 76 0 95 3 86 12 -23 23 -11 45 83 138 l95 95 0 -111 c0
-72 -4 -114 -12 -122 -9 -9 0 -12 41 -12 43 0 51 3 43 13 -17 20 -18 292 -2
312 11 13 6 15 -41 15 -41 0 -50 -3 -41 -12 23 -23 11 -45 -83 -138 l-95 -95
0 111 c0 72 4 114 12 122 9 9 0 12 -41 12 -52 0 -52 0 -37 -22 21 -30 23 -265
3 -292 -19 -25 -26 -14 -100 159 -62 145 -65 150 -95 153 -23 2 -30 0 -27 -10z"/>
<path d="M1308 378 c15 -15 17 -281 2 -309 -10 -17 -7 -19 27 -19 29 0 34 3
25 12 -8 8 -12 49 -11 123 l0 110 63 -125 64 -125 68 135 69 135 3 -109 c2
-85 -1 -114 -13 -132 l-15 -24 52 0 c40 0 49 3 40 12 -17 17 -17 299 0 316 9
9 3 12 -27 11 l-40 0 -61 -127 -61 -127 -64 128 c-63 126 -64 127 -98 127 -27
0 -32 -3 -23 -12z"/>
<path d="M1724 368 c13 -17 16 -51 16 -148 0 -97 -3 -131 -16 -148 -15 -22
-15 -22 37 -22 41 0 50 3 41 12 -8 8 -12 57 -12 155 l0 143 90 0 90 0 0 -139
c0 -114 -3 -143 -16 -155 -14 -15 -10 -16 41 -16 51 0 55 1 41 16 -13 12 -16
41 -16 154 0 113 3 142 16 154 14 15 0 16 -156 16 l-171 0 15 -22z"/>
</g>
</svg>
