<svg width="115" height="52" viewBox="0 0 115 52" fill="none" xmlns="http://www.w3.org/2000/svg">
<path fill-rule="evenodd" clip-rule="evenodd" d="M52.8865 3.535C51.1795 5.479 49.7825 7.681 49.7825 8.428C49.7825 9.175 49.1315 10.036 48.3345 10.342C47.5385 10.647 46.1245 12.383 45.1935 14.199C44.2615 16.014 40.4725 20.512 36.7735 24.193L30.0485 30.887L27.2205 27.936L24.3935 24.985L21.3385 27.901C19.6575 29.506 16.7075 31.472 14.7825 32.271C11.1975 33.759 6.59746 38 8.56846 38C9.17146 38 9.97246 37.502 10.3485 36.893C10.8355 36.106 11.2525 36.143 11.7955 37.021C12.2655 37.782 13.0815 37.929 13.9205 37.405C14.6695 36.936 15.7325 36.534 16.2825 36.511C16.8325 36.488 18.8955 35.85 20.8665 35.094C23.8375 33.953 24.3745 33.314 24.0005 31.359C23.4505 28.481 24.8555 28.318 27.2655 30.981C28.6235 32.482 28.7875 33.29 27.9395 34.311C27.0365 35.398 27.4445 35.624 30.0515 35.481C31.8285 35.383 34.5495 34.785 36.0975 34.151C40.4235 32.382 43.6985 32.761 48.5235 35.588C50.9525 37.012 53.1365 37.98 53.3765 37.74C54.2185 36.898 48.4335 31.947 42.8855 28.762C39.6555 26.907 37.9365 25.415 38.8255 25.239C39.6745 25.071 41.7295 22.72 43.3925 20.016C45.0565 17.311 48.5985 12.766 51.2655 9.915C55.8175 5.049 56.1965 4.846 57.4765 6.597C59.2775 9.059 58.7405 11.391 56.2715 11.834C54.2115 12.203 47.7825 17.78 47.7825 19.196C47.7825 19.638 48.8955 20 50.2565 20C51.9905 20 53.1925 20.891 54.2725 22.98C55.4285 25.216 58.1315 27.065 65.0975 30.386C70.2045 32.821 74.9955 35.551 75.7445 36.454C76.8225 37.753 77.2745 37.824 77.9145 36.797C78.4585 35.924 78.9485 36.62 79.4135 38.931C80.0385 42.034 80.1815 42.154 80.9115 40.181C81.9735 37.309 83.9485 37.427 87.7055 40.589C93.5105 45.474 90.7795 41.171 83.0325 33.227C78.7045 28.789 73.9605 22.724 72.2895 19.493C70.4305 15.9 67.9125 12.791 65.6445 11.29C63.6365 9.961 60.9345 6.877 59.6395 4.437C58.3455 1.997 56.9945 0 56.6375 0C56.2815 0 54.5935 1.591 52.8865 3.535ZM83.2035 14.778C78.7705 18.823 74.8245 23.639 77.9355 21.208C79.2855 20.153 79.6755 20.153 80.0685 21.208C80.3885 22.067 80.8045 21.83 81.3115 20.5C82.1765 18.226 85.7155 15.055 87.4255 15.022C89.0455 14.991 90.0505 18.132 88.8155 19.367C87.0605 21.122 87.6475 21.884 91.2825 22.566C94.5915 23.187 94.7825 23.441 94.7825 27.234C94.7825 30.671 94.9955 31.068 96.2695 30.011C97.7675 28.768 100.91 29.276 100.673 30.722C100.603 31.15 100.598 32.599 100.664 33.941C100.771 36.165 100.895 36.228 102.052 34.646C103.235 33.028 103.583 33.019 107.16 34.513C109.271 35.395 111.25 35.866 111.557 35.559C111.864 35.251 111.571 35 110.906 35C108.964 35 99.8635 25.973 98.1365 22.333C97.2665 20.5 96.0095 19 95.3435 19C94.0955 19 92.0535 17.152 89.0215 13.278L87.2825 11.056L83.2035 14.778ZM67.6695 19.11C69.7925 19.851 71.5135 21.512 72.8315 24.096C73.9185 26.227 75.9415 28.713 77.3265 29.621C80.8495 31.929 79.6585 32.501 75.6255 30.437C70.8375 27.988 61.6085 18 64.1335 18C64.3265 18 65.9175 18.5 67.6695 19.11ZM20.2825 38.932C13.1025 40.112 7.80146 41.671 3.25446 43.939C-1.57154 46.346 -1.27154 46.407 5.78246 44.451C20.1385 40.471 43.8475 41.845 69.7335 48.158C89.9575 53.09 101.086 52.417 110.53 45.69C116.055 41.754 115.389 41.243 109.226 44.687C105.247 46.911 102.786 47.479 95.6575 47.82C88.3075 48.172 85.4935 47.809 77.6155 45.496C72.4825 43.989 64.4575 41.907 59.7825 40.869C50.2415 38.752 28.0105 37.661 20.2825 38.932Z" fill="#fcffd4"/>
</svg>
